PathFileType	4	(X/Y/Z)	 s02c0001.trc
DataRate	CameraRate	NumFrames	NumMarkers	Units	OrigDataRate	OrigDataStartFrame	OrigNumFrames
200	200	6	49	mm	200	1251	2000
Frame#	Time	racr			lacr			c7			jug			rlel			rdr			llel			ldr			s2			lic			ric			lasi			rasi			rpsi			lpsi			rgt			lgt			rth1			rth2			rth3			rth4			rlfc			rmfc			rsh1			rsh2			rsh3			rsh4			rlmal			rmmal			rcal			rtoe			rmt5			rmt1			lth1			lth2			lth4			lth3			llfc			lmfc			lsh1			lsh2			lsh3			lsh4			llmal			lmmal			lcal			ltoe			lmt1			lmt5			
		X1	Y1	Z1	X2	Y2	Z2	X3	Y3	Z3	X4	Y4	Z4	X5	Y5	Z5	X6	Y6	Z6	X7	Y7	Z7	X8	Y8	Z8	X9	Y9	Z9	X10	Y10	Z10	X11	Y11	Z11	X12	Y12	Z12	X13	Y13	Z13	X14	Y14	Z14	X15	Y15	Z15	X16	Y16	Z16	X17	Y17	Z17	X18	Y18	Z18	X19	Y19	Z19	X20	Y20	Z20	X21	Y21	Z21	X22	Y22	Z22	X23	Y23	Z23	X24	Y24	Z24	X25	Y25	Z25	X26	Y26	Z26	X27	Y27	Z27	X28	Y28	Z28	X29	Y29	Z29	X30	Y30	Z30	X31	Y31	Z31	X32	Y32	Z32	X33	Y33	Z33	X34	Y34	Z34	X35	Y35	Z35	X36	Y36	Z36	X37	Y37	Z37	X38	Y38	Z38	X39	Y39	Z39	X40	Y40	Z40	X41	Y41	Z41	X42	Y42	Z42	X43	Y43	Z43	X44	Y44	Z44	X45	Y45	Z45	X46	Y46	Z46	X47	Y47	Z47	X48	Y48	Z48	X49	Y49	Z49	
1251	6.2550	565.368870	1430.568176	564.850698	592.289365	1423.525493	161.473752	543.999787	1480.274656	357.486854	648.505106	1383.264046	365.247927	535.361528	1144.714917	634.578525	629.285579	1019.214014	778.352494	566.498907	1114.986754	127.469373	740.505770	1041.202073	21.469582	476.569522	973.981050	363.754203	634.620205	1018.178795	228.385882	601.988930	1020.694913	514.020982	681.254412	968.761739	260.396139	650.939739	971.880172	494.410546	486.282169	1000.221109	408.341490	497.913100	996.176325	323.858037	552.042810	886.615678	538.615644	567.888204	886.319262	205.025571	587.340157	802.187490	551.521879	605.314314	714.476267	548.759498	579.128336	633.189948	558.411848	638.485470	712.420750	530.717956	559.031948	499.293040	515.308445	562.513780	484.415196	411.129396	529.742040	398.010964	532.619047	543.886192	311.340614	517.365845	514.458939	230.064877	513.811715	564.233013	313.569537	483.670660	503.169673	101.237475	499.491468	515.061259	114.571031	421.607588	451.166674	53.636992	442.786298	726.926637	86.657480	498.846204	615.350625	48.344900	537.559709	657.239330	71.481064	436.098988	596.487843	759.961214	187.787829	606.404787	673.050444	194.217009	640.432037	670.412971	210.086174	569.706539	592.686021	203.332521	562.258950	495.075639	224.167263	558.699949	469.119140	322.110955	536.359213	399.489328	200.184915	554.866135	315.876415	215.303753	528.901135	228.933984	214.344718	574.346831	318.307811	250.420227	518.883340	114.160161	231.631452	541.761356	118.699183	309.736260	468.765337	58.346844	277.579548	751.471632	81.856115	249.397083	674.145991	70.409423	302.634476	646.766892	46.382570	196.290109	
1252	6.2600	565.337771	1430.565308	564.831899	592.259834	1423.544664	161.467611	543.985253	1480.292841	357.471996	648.484828	1383.268544	365.229380	535.350781	1144.729492	634.561315	629.266650	1019.219916	778.310339	566.478504	1114.996585	127.455466	740.483969	1041.209173	21.463780	476.544166	973.976435	363.738573	634.593012	1018.178028	228.370236	601.941983	1020.686738	514.025077	681.216559	968.748814	260.390680	650.908395	971.879638	494.403099	486.281510	1000.206163	408.304326	497.907735	996.155948	323.846662	552.008031	886.623425	538.611635	567.862236	886.332942	205.011818	587.301101	802.179694	551.518287	605.284307	714.478951	548.746896	579.090433	633.175018	558.398253	638.465074	712.427342	530.713123	559.013302	499.295000	515.313492	562.484033	484.412067	411.138051	529.737719	398.014936	532.614635	543.885114	311.310309	517.374064	514.459511	230.072746	513.798771	564.246155	313.571903	483.686185	503.175606	101.233007	499.484765	515.062821	114.582927	421.613630	451.166057	53.633031	442.768793	726.929012	86.645729	498.843393	615.367671	48.279477	537.619095	657.210920	71.494058	436.120475	596.473824	759.926696	187.794105	606.384059	673.041147	194.239072	640.411605	670.422065	210.078803	569.693888	592.704165	203.319209	562.239883	495.059488	224.172450	558.696846	469.121684	322.110273	536.349925	399.482416	200.190924	554.860319	315.874015	215.309713	528.914310	228.923730	214.339766	574.353265	318.316474	250.428504	519.459053	113.713306	231.359876	541.766143	118.709390	309.732645	468.775167	58.335889	277.569640	751.471598	81.844635	249.408517	674.156444	70.403039	302.652413	646.813417	46.400399	196.245203	
1253	6.2650	565.351889	1430.571297	564.823471	592.235400	1423.554233	161.463866	543.959618	1480.278688	357.450519	648.469983	1383.272437	365.225697	535.348751	1144.749637	634.558675	629.266001	1019.214607	778.282924	566.450109	1114.993158	127.432764	740.470760	1041.243971	21.435658	476.508429	973.986179	363.722928	634.545018	1018.182251	228.370923	601.941203	1020.685388	514.025557	681.207342	968.750745	260.392018	650.901552	971.887943	494.401288	486.252958	1000.211584	408.311895	497.877893	996.155759	323.842364	551.978067	886.627260	538.609680	567.845674	886.317605	204.997312	587.282439	802.188502	551.505720	605.255818	714.483838	548.756930	579.085141	633.164027	558.403898	638.441914	712.441184	530.711456	558.999578	499.303050	515.311344	562.447070	484.383010	411.127618	529.745050	398.006148	532.607229	543.874951	311.343999	517.364768	514.452441	230.062054	513.816211	564.224164	313.572879	483.676066	503.163275	101.228335	499.476900	515.058747	114.573982	421.610088	451.163124	53.627748	442.770330	726.939697	86.638263	498.847082	615.361708	48.331447	537.574067	657.237822	71.501399	436.120408	596.448270	759.936300	187.794272	606.376368	673.049709	194.211455	640.397466	670.407990	210.094237	569.687961	592.707174	203.321810	562.244866	495.046967	224.164946	558.678134	469.122599	322.092459	536.329341	399.483948	200.188091	554.843256	315.862248	215.295378	528.888934	228.944542	214.335080	574.326663	318.308769	250.406897	519.445947	113.723156	231.368691	541.756753	118.687735	309.738913	468.762000	58.356603	277.583692	751.475082	81.844004	249.389289	674.150569	70.411519	302.641334	646.807997	46.406751	196.247909	
1254	6.2700	565.328624	1430.587263	564.823883	592.222572	1423.552676	161.439550	543.935693	1480.286751	357.448493	648.448740	1383.285739	365.188664	535.333225	1144.744404	634.541501	629.261058	1019.220471	778.250356	566.422404	1115.005803	127.412719	740.459468	1041.255832	21.428961	476.495203	973.979892	363.720334	634.511070	1018.189765	228.366140	601.889489	1020.691607	514.007099	681.171409	968.761823	260.384038	650.852410	971.893516	494.399016	486.255065	1000.263202	408.299855	497.828791	996.153621	323.840960	551.953797	886.623180	538.597286	567.800657	886.324925	204.997129	587.255528	802.191315	551.510007	605.204986	714.489776	548.745704	579.061750	633.164227	558.388291	638.410616	712.436056	530.712050	558.960126	499.289138	515.311936	562.451606	484.394839	411.126305	529.721567	398.026442	532.614731	543.860913	311.338409	517.357263	514.438824	230.063882	513.805215	564.214133	313.568268	483.644797	503.176062	101.235800	499.485970	515.039737	114.565026	421.608758	451.161011	53.624075	442.787503	726.943415	86.643300	498.851121	615.369109	48.343085	537.567319	657.231161	71.502985	436.106597	596.426382	759.939095	187.786024	606.376015	673.055374	194.213041	640.369483	670.411807	210.072696	569.669546	592.692179	203.307300	562.216207	495.052120	224.158905	558.665384	469.122460	322.098876	536.328888	399.480284	200.172593	554.854593	315.867104	215.311003	528.881426	228.932769	214.328449	574.329100	318.302248	250.412293	519.444153	113.696609	231.367768	541.745810	118.704535	309.746250	468.765533	58.342699	277.560985	751.460820	81.833880	249.412076	674.161384	70.410946	302.643982	646.786150	46.392996	196.250406	
1255	6.2750	565.313280	1430.605973	564.806474	592.203872	1423.559838	161.443179	543.909391	1480.286124	357.439304	648.431348	1383.284362	365.198576	535.308553	1144.770867	634.515335	629.250637	1019.222478	778.236106	566.400756	1115.022845	127.383857	740.443743	1041.267629	21.430249	476.465546	973.970000	363.717642	634.489998	1018.189055	228.363317	601.841782	1020.705213	514.003873	681.151272	968.773414	260.377302	650.817560	971.902267	494.389948	486.209088	1000.271679	408.288493	497.794924	996.142118	323.819681	551.916581	886.627570	538.598165	567.780469	886.322991	204.995410	587.236971	802.192630	551.497992	605.184280	714.475565	548.745821	579.025984	633.179097	558.401595	638.378191	712.451017	530.707145	558.969870	499.293316	515.303930	562.482966	484.413439	411.120656	529.701648	398.023305	532.606014	543.875033	311.306193	517.363379	514.429580	230.074805	513.810315	564.207454	313.562300	483.667246	503.163652	101.244808	499.471627	515.070057	114.564542	421.601641	451.154096	53.638180	442.784621	726.914336	86.649020	498.850269	615.367251	48.280318	537.618328	657.215318	71.490032	436.107609	596.397166	759.946380	187.771655	606.350603	673.072989	194.214990	640.362674	670.407461	210.070934	569.659932	592.697486	203.316384	562.206015	495.053076	224.159083	558.641587	469.112152	322.089111	536.305559	399.480096	200.170385	554.833623	315.866740	215.288273	528.881443	228.932759	214.328449	574.303240	318.298771	250.411169	519.468769	113.703976	231.355710	541.763913	118.695412	309.734961	468.773242	58.330186	277.571442	751.460996	81.840946	249.397312	674.160551	70.412125	302.650433	646.809957	46.405624	196.247277	
1256	6.2800	565.281225	1430.606415	564.799564	592.171384	1423.579339	161.430891	543.871785	1480.294964	357.461209	648.400312	1383.287448	365.192819	535.279930	1144.773897	634.478470	629.242611	1019.255519	778.222744	566.374621	1115.021120	127.369300	740.446689	1041.287978	21.413036	476.440574	973.975403	363.712398	634.485560	1018.190146	228.363304	601.826668	1020.698330	513.991958	681.121591	968.759429	260.379742	650.783264	971.905084	494.395202	486.180047	1000.280152	408.280817	497.768375	996.149869	323.804541	551.888568	886.632369	538.586818	567.747253	886.321893	204.980688	587.202633	802.192759	551.497601	605.168972	714.492886	548.739190	579.008492	633.180779	558.386936	638.346596	712.447249	530.710186	558.947588	499.298414	515.305326	562.426147	484.406703	411.117040	529.701068	398.005737	532.604413	543.849157	311.337334	517.371497	514.442316	230.088918	513.788031	564.192210	313.572949	483.658247	503.165414	101.225458	499.469839	515.057036	114.555112	421.607719	451.177908	53.629997	442.779642	726.920608	86.621990	498.861281	615.350590	48.344905	537.559764	657.211683	71.498579	436.111568	596.398473	759.937264	187.789103	606.325691	673.070598	194.217389	640.356607	670.421524	210.095111	569.637472	592.691488	203.313689	562.194039	495.041162	224.144495	558.656464	469.141039	322.106165	536.300809	399.463339	200.164549	554.827239	315.861831	215.280216	528.882939	228.909963	214.323689	574.300901	318.307924	250.398005	519.436542	113.717568	231.358455	541.645564	118.785559	309.853404	468.778371	58.344159	277.575261	751.480181	81.836210	249.388991	674.149590	70.415198	302.644751	646.759261	46.387929	196.268641	
